<svg width="10" height="9" viewBox="0 0 10 9" fill="none" xmlns="http://www.w3.org/2000/svg">
<g clip-path="url(#clip0_115_385)">
<path d="M8.41739 2.10367L3.50494 6.82939C3.47191 6.86129 3.43266 6.8866 3.38944 6.90387C3.34622 6.92114 3.29988 6.93003 3.25308 6.93003C3.20628 6.93003 3.15993 6.92114 3.11671 6.90387C3.07349 6.8866 3.03424 6.86129 3.00122 6.82939L1.1015 5.00004C1.06847 4.96814 1.02922 4.94283 0.986003 4.92556C0.942782 4.90829 0.896442 4.8994 0.849641 4.8994C0.80284 4.8994 0.756499 4.90829 0.713279 4.92556C0.670058 4.94283 0.630807 4.96814 0.59778 5.00004C0.564621 5.03182 0.538311 5.06958 0.520358 5.11116C0.502405 5.15274 0.493164 5.19732 0.493164 5.24235C0.493164 5.28737 0.502405 5.33195 0.520358 5.37353C0.538311 5.41512 0.564621 5.45288 0.59778 5.48465L2.4982 7.31263C2.69868 7.50514 2.97036 7.61326 3.25361 7.61326C3.53686 7.61326 3.80854 7.50514 4.00902 7.31263L8.92111 2.58794C8.95422 2.55617 8.98048 2.51843 8.9984 2.47688C9.01632 2.43533 9.02555 2.39079 9.02555 2.3458C9.02555 2.30082 9.01632 2.25627 8.9984 2.21473C8.98048 2.17318 8.95422 2.13544 8.92111 2.10367C8.88808 2.07177 8.84883 2.04645 8.80561 2.02918C8.76239 2.01191 8.71605 2.00302 8.66925 2.00302C8.62245 2.00302 8.57611 2.01191 8.53289 2.02918C8.48967 2.04645 8.45042 2.07177 8.41739 2.10367Z" fill="white"/>
</g>
<defs>
<clipPath id="clip0_115_385">
<rect width="8.53165" height="8.20793" fill="white" transform="translate(0.483398 0.588257)"/>
</clipPath>
</defs>
</svg>
