<svg width="15" height="15" viewBox="0 0 15 15" fill="none" xmlns="http://www.w3.org/2000/svg">
<g clip-path="url(#clip0_115_535)">
<path d="M12.3335 30C10.5002 30 9.01683 31.5 9.01683 33.3333C9.01683 35.1667 10.5002 36.6667 12.3335 36.6667C14.1668 36.6667 15.6668 35.1667 15.6668 33.3333C15.6668 31.5 14.1668 30 12.3335 30ZM2.3335 3.33334V6.66668H5.66683L11.6668 19.3167L9.41683 23.4C9.15016 23.8667 9.00016 24.4167 9.00016 25C9.00016 26.8333 10.5002 28.3333 12.3335 28.3333H32.3335V25H13.0335C12.8002 25 12.6168 24.8167 12.6168 24.5833L12.6668 24.3833L14.1668 21.6667H26.5835C27.8335 21.6667 28.9335 20.9833 29.5002 19.95L35.4668 9.13334C35.6002 8.90001 35.6668 8.61668 35.6668 8.33334C35.6668 7.41668 34.9168 6.66668 34.0002 6.66668H9.35016L7.7835 3.33334H2.3335ZM29.0002 30C27.1668 30 25.6835 31.5 25.6835 33.3333C25.6835 35.1667 27.1668 36.6667 29.0002 36.6667C30.8335 36.6667 32.3335 35.1667 32.3335 33.3333C32.3335 31.5 30.8335 30 29.0002 30Z" fill="#DA686D"/>
</g>
<defs>
<clipPath id="clip0_115_535">
<rect width="15" height="15" fill="white" transform="translate(0.666748)"/>
</clipPath>
</defs>
</svg>
