<svg width="321" height="40" viewBox="0 0 321 40" fill="none" xmlns="http://www.w3.org/2000/svg">
<path d="M3.33333 31.6667H8.33333V21.6667H18.3333V31.6667H23.3333V16.6667L13.3333 9.16667L3.33333 16.6667V31.6667ZM0 35V15L13.3333 5L26.6667 15V35H15V25H11.6667V35H0Z" fill="#DA686D"/>
<path d="M121.485 12.75H116.303V5.5H92.1212C90.2212 5.5 88.6667 7.13125 88.6667 9.125V29.0625H92.1212C92.1212 32.0712 94.4358 34.5 97.3031 34.5C100.17 34.5 102.485 32.0712 102.485 29.0625H112.849C112.849 32.0712 115.163 34.5 118.03 34.5C120.898 34.5 123.212 32.0712 123.212 29.0625H126.667V20L121.485 12.75ZM97.3031 31.7812C95.8694 31.7812 94.7121 30.5669 94.7121 29.0625C94.7121 27.5581 95.8694 26.3438 97.3031 26.3438C98.7367 26.3438 99.894 27.5581 99.894 29.0625C99.894 30.5669 98.7367 31.7812 97.3031 31.7812ZM120.621 15.4688L124.007 20H116.303V15.4688H120.621ZM118.03 31.7812C116.597 31.7812 115.439 30.5669 115.439 29.0625C115.439 27.5581 116.597 26.3438 118.03 26.3438C119.464 26.3438 120.621 27.5581 120.621 29.0625C120.621 30.5669 119.464 31.7812 118.03 31.7812Z" fill="#DA686D"/>
<g clip-path="url(#clip0_140_25)">
<path d="M200.333 30C198.5 30 197.017 31.5 197.017 33.3334C197.017 35.1667 198.5 36.6667 200.333 36.6667C202.167 36.6667 203.667 35.1667 203.667 33.3334C203.667 31.5 202.167 30 200.333 30ZM190.333 3.33337V6.66671H193.667L199.667 19.3167L197.417 23.4C197.15 23.8667 197 24.4167 197 25C197 26.8334 198.5 28.3334 200.333 28.3334H220.333V25H201.033C200.8 25 200.617 24.8167 200.617 24.5834L200.667 24.3834L202.167 21.6667H214.583C215.833 21.6667 216.933 20.9834 217.5 19.95L223.467 9.13337C223.6 8.90004 223.667 8.61671 223.667 8.33337C223.667 7.41671 222.917 6.66671 222 6.66671H197.35L195.783 3.33337H190.333ZM217 30C215.167 30 213.683 31.5 213.683 33.3334C213.683 35.1667 215.167 36.6667 217 36.6667C218.833 36.6667 220.333 35.1667 220.333 33.3334C220.333 31.5 218.833 30 217 30Z" fill="#DA686D"/>
</g>
<path d="M320.002 32.3599C318.128 28.8954 315.201 26.1959 311.693 24.696C313.437 23.318 314.726 21.3969 315.376 19.2048C316.027 17.0127 316.005 14.6607 315.316 12.482C314.626 10.3033 313.303 8.40826 311.534 7.06543C309.765 5.7226 307.639 5 305.458 5C303.277 5 301.152 5.7226 299.383 7.06543C297.614 8.40826 296.29 10.3033 295.601 12.482C294.911 14.6607 294.89 17.0127 295.54 19.2048C296.191 21.3969 297.479 23.318 299.224 24.696C295.716 26.1959 292.789 28.8954 290.914 32.3599C290.798 32.5565 290.721 32.7758 290.686 33.0046C290.652 33.2334 290.662 33.4671 290.716 33.6918C290.769 33.9165 290.865 34.1275 290.997 34.3125C291.13 34.4974 291.296 34.6524 291.487 34.7683C291.677 34.8841 291.888 34.9585 292.106 34.9869C292.324 35.0154 292.546 34.9973 292.757 34.9338C292.969 34.8703 293.166 34.7627 293.337 34.6173C293.508 34.4719 293.65 34.2918 293.754 34.0876C296.231 29.5782 300.606 26.8887 305.458 26.8887C310.31 26.8887 314.685 29.5797 317.163 34.0876C317.388 34.4684 317.744 34.7423 318.158 34.8512C318.571 34.9601 319.008 34.8955 319.377 34.6711C319.745 34.4468 320.017 34.0802 320.134 33.6488C320.25 33.2175 320.203 32.7553 320.002 32.3599ZM298.349 15.9465C298.349 14.4658 298.766 13.0183 299.547 11.7871C300.328 10.5559 301.439 9.59631 302.738 9.02965C304.037 8.463 305.466 8.31473 306.845 8.60361C308.224 8.89249 309.491 9.60554 310.485 10.6526C311.48 11.6996 312.157 13.0336 312.431 14.4859C312.705 15.9382 312.565 17.4436 312.026 18.8116C311.488 20.1796 310.577 21.3489 309.408 22.1716C308.239 22.9942 306.864 23.4333 305.458 23.4333C303.573 23.431 301.766 22.6415 300.434 21.238C299.101 19.8344 298.351 17.9314 298.349 15.9465Z" fill="#DA686D"/>
<defs>
<clipPath id="clip0_140_25">
<rect width="40" height="40" fill="white" transform="translate(188.667)"/>
</clipPath>
</defs>
</svg>
