<svg width="10" height="10" viewBox="0 0 10 10" fill="none" xmlns="http://www.w3.org/2000/svg">
<g clip-path="url(#clip0_115_528)">
<path d="M9.58333 4.58333H5.41667V0.416667C5.41667 0.30616 5.37277 0.200179 5.29463 0.122039C5.21649 0.0438987 5.11051 0 5 0V0C4.88949 0 4.78351 0.0438987 4.70537 0.122039C4.62723 0.200179 4.58333 0.30616 4.58333 0.416667V4.58333H0.416667C0.30616 4.58333 0.200179 4.62723 0.122039 4.70537C0.0438987 4.78351 0 4.88949 0 5H0C0 5.11051 0.0438987 5.21649 0.122039 5.29463C0.200179 5.37277 0.30616 5.41667 0.416667 5.41667H4.58333V9.58333C4.58333 9.69384 4.62723 9.79982 4.70537 9.87796C4.78351 9.9561 4.88949 10 5 10C5.11051 10 5.21649 9.9561 5.29463 9.87796C5.37277 9.79982 5.41667 9.69384 5.41667 9.58333V5.41667H9.58333C9.69384 5.41667 9.79982 5.37277 9.87796 5.29463C9.9561 5.21649 10 5.11051 10 5C10 4.88949 9.9561 4.78351 9.87796 4.70537C9.79982 4.62723 9.69384 4.58333 9.58333 4.58333Z" fill="#DA686D"/>
</g>
<defs>
<clipPath id="clip0_115_528">
<rect width="10" height="10" fill="white"/>
</clipPath>
</defs>
</svg>
