<svg width="40" height="40" viewBox="0 0 40 40" fill="none" xmlns="http://www.w3.org/2000/svg">
<path d="M28.0512 29.5C27.6339 29.0185 27.4253 28.4719 27.4253 27.86C27.4253 27.2496 27.6339 26.7407 28.0512 26.3333L32.2617 22.2222H15.9317C15.2869 22.2222 14.7467 22.0089 14.3112 21.5822C13.8743 21.157 13.6558 20.6296 13.6558 20C13.6558 19.3704 13.8743 18.8422 14.3112 18.4156C14.7467 17.9904 15.2869 17.7778 15.9317 17.7778H32.2617L28.0512 13.6667C27.596 13.2222 27.3684 12.6948 27.3684 12.0844C27.3684 11.4726 27.596 10.9444 28.0512 10.5C28.4685 10.0556 28.9904 9.83333 29.6171 9.83333C30.2422 9.83333 30.7634 10.037 31.1807 10.4444L39.3741 18.4444C39.6017 18.6667 39.7633 18.9074 39.8589 19.1667C39.953 19.4259 40 19.7037 40 20C40 20.2963 39.953 20.5741 39.8589 20.8333C39.7633 21.0926 39.6017 21.3333 39.3741 21.5556L31.1807 29.5556C30.6875 30.037 30.1474 30.2496 29.5602 30.1933C28.9715 30.1385 28.4685 29.9074 28.0512 29.5ZM4.55192 40C3.30014 40 2.22816 39.5652 1.33599 38.6956C0.445329 37.8244 0 36.7778 0 35.5556V4.44444C0 3.22222 0.445329 2.17556 1.33599 1.30444C2.22816 0.434815 3.30014 0 4.55192 0H18.2077C18.8525 0 19.3935 0.212592 19.8304 0.637778C20.2659 1.06444 20.4836 1.59259 20.4836 2.22222C20.4836 2.85185 20.2659 3.37926 19.8304 3.80444C19.3935 4.23111 18.8525 4.44444 18.2077 4.44444H4.55192V35.5556H18.2077C18.8525 35.5556 19.3935 35.7689 19.8304 36.1956C20.2659 36.6207 20.4836 37.1482 20.4836 37.7778C20.4836 38.4074 20.2659 38.9348 19.8304 39.36C19.3935 39.7867 18.8525 40 18.2077 40H4.55192Z" fill="#DA686D"/>
</svg>
