<svg width="22" height="23" viewBox="0 0 22 23" fill="none" xmlns="http://www.w3.org/2000/svg">
<g clip-path="url(#clip0_115_583)">
<path d="M17.0592 4.88728H15.1828C14.9755 3.81901 14.4268 2.85915 13.6293 2.16946C12.8318 1.47978 11.8342 1.10245 10.8047 1.10107H4.55029C3.36588 1.10258 2.23039 1.60169 1.39289 2.48893C0.555384 3.37617 0.0842511 4.57909 0.0828323 5.83383L0.0828323 14.3528C0.0850784 15.2006 0.355828 16.023 0.851714 16.6884C1.3476 17.3538 2.03993 17.8236 2.81781 18.0226C2.73361 18.4963 2.748 18.9837 2.85997 19.4509C2.97195 19.9181 3.17881 20.3538 3.46612 20.7276C3.75344 21.1014 4.11428 21.4042 4.52347 21.615C4.93266 21.8258 5.38035 21.9395 5.83528 21.948C6.29021 21.9566 6.74143 21.86 7.15746 21.6648C7.57348 21.4695 7.94428 21.1805 8.24399 20.8178C8.5437 20.4551 8.76508 20.0275 8.8927 19.5649C9.02033 19.1022 9.05111 18.6156 8.9829 18.139H12.6301C12.6071 18.2956 12.5949 18.4538 12.5935 18.6123C12.5935 19.4909 12.923 20.3336 13.5094 20.9549C14.0959 21.5762 14.8913 21.9252 15.7207 21.9252C16.5501 21.9252 17.3455 21.5762 17.932 20.9549C18.5185 20.3336 18.8479 19.4909 18.8479 18.6123C18.8469 18.4144 18.8287 18.217 18.7934 18.0226C19.571 17.8232 20.2629 17.3532 20.7584 16.6879C21.254 16.0225 21.5245 15.2003 21.5266 14.3528V9.62004C21.5252 8.3653 21.0541 7.16237 20.2166 6.27513C19.3791 5.3879 18.2436 4.88878 17.0592 4.88728ZM19.7396 9.62004V10.5666H15.2722V6.78039H17.0592C17.7701 6.78039 18.4519 7.07956 18.9545 7.6121C19.4572 8.14464 19.7396 8.86692 19.7396 9.62004ZM1.86981 14.3528V5.83383C1.86981 5.08071 2.15222 4.35843 2.65491 3.82589C3.15759 3.29335 3.83938 2.99418 4.55029 2.99418H10.8047C11.5156 2.99418 12.1974 3.29335 12.7001 3.82589C13.2028 4.35843 13.4852 5.08071 13.4852 5.83383V16.2459H3.6568C3.18286 16.2459 2.72833 16.0465 2.39321 15.6914C2.05809 15.3364 1.86981 14.8549 1.86981 14.3528ZM7.23076 18.6123C7.23076 18.9888 7.08956 19.35 6.83821 19.6163C6.58687 19.8825 6.24598 20.0321 5.89052 20.0321C5.53507 20.0321 5.19418 19.8825 4.94283 19.6163C4.69149 19.35 4.55029 18.9888 4.55029 18.6123C4.55084 18.4505 4.57899 18.2902 4.63338 18.139H7.14767C7.20206 18.2902 7.23021 18.4505 7.23076 18.6123ZM15.7189 20.0321C15.3635 20.0321 15.0226 19.8825 14.7712 19.6163C14.5199 19.35 14.3787 18.9888 14.3787 18.6123C14.3791 18.4505 14.4072 18.2901 14.4618 18.139H16.9761C17.0306 18.2901 17.0588 18.4505 17.0592 18.6123C17.0592 18.9888 16.918 19.35 16.6666 19.6163C16.4153 19.8825 16.0744 20.0321 15.7189 20.0321ZM17.9527 16.2459H15.2722V12.4597H19.7396V14.3528C19.7396 14.8549 19.5514 15.3364 19.2162 15.6914C18.8811 16.0465 18.4266 16.2459 17.9527 16.2459Z" fill="#DA686D"/>
</g>
<defs>
<clipPath id="clip0_115_583">
<rect width="21.4438" height="22.7172" fill="white" transform="translate(0.08284 0.155151)"/>
</clipPath>
</defs>
</svg>
