<svg width="22" height="23" viewBox="0 0 22 23" fill="none" xmlns="http://www.w3.org/2000/svg">
<g clip-path="url(#clip0_115_607)">
<path d="M17.9079 5.2784L14.7932 1.97872C14.2138 1.36165 13.5247 0.872416 12.7657 0.539343C12.0067 0.20627 11.1929 0.0359684 10.3713 0.0382925H6.33721C5.1528 0.0397955 4.01731 0.538907 3.17981 1.42615C2.3423 2.31338 1.87117 3.51631 1.86975 4.77105V18.0228C1.87117 19.2775 2.3423 20.4804 3.17981 21.3677C4.01731 22.2549 5.1528 22.754 6.33721 22.7555H15.2721C16.4565 22.754 17.592 22.2549 18.4295 21.3677C19.267 20.4804 19.7382 19.2775 19.7396 18.0228V9.96289C19.7418 9.09255 19.581 8.23039 19.2666 7.42631C18.9522 6.62222 18.4904 5.89217 17.9079 5.2784V5.2784ZM16.6445 6.61683C16.9171 6.91443 17.1517 7.24857 17.3423 7.61071H13.4851C13.2482 7.61071 13.0209 7.51098 12.8533 7.33347C12.6858 7.15596 12.5916 6.9152 12.5916 6.66416V2.57789C12.9335 2.77987 13.2489 3.0284 13.5298 3.31715L16.6445 6.61683ZM17.9526 18.0228C17.9526 18.7759 17.6702 19.4982 17.1675 20.0307C16.6648 20.5633 15.983 20.8624 15.2721 20.8624H6.33721C5.6263 20.8624 4.94451 20.5633 4.44183 20.0307C3.93914 19.4982 3.65673 18.7759 3.65673 18.0228V4.77105C3.65673 4.01793 3.93914 3.29565 4.44183 2.76311C4.94451 2.23057 5.6263 1.9314 6.33721 1.9314H10.3713C10.5187 1.9314 10.6599 1.96169 10.8047 1.97588V6.66416C10.8047 7.41728 11.0871 8.13956 11.5898 8.6721C12.0924 9.20463 12.7742 9.50381 13.4851 9.50381H17.9106C17.924 9.65715 17.9526 9.80671 17.9526 9.96289V18.0228ZM15.0255 12.6378C15.1887 12.8197 15.277 13.0627 15.2711 13.3134C15.2653 13.5642 15.1657 13.8023 14.9942 13.9753L11.7875 17.2068C11.2834 17.7325 10.6037 18.0257 9.89643 18.0227C9.18915 18.0197 8.51167 17.7206 8.01161 17.1908L6.63563 15.8902C6.45862 15.723 6.35155 15.4882 6.33797 15.2373C6.33125 15.1131 6.34769 14.9888 6.38634 14.8713C6.425 14.7538 6.48511 14.6456 6.56326 14.5527C6.6414 14.4599 6.73605 14.3842 6.84179 14.3301C6.94753 14.276 7.06229 14.2445 7.17952 14.2374C7.41629 14.223 7.64875 14.3089 7.82576 14.476L9.24195 15.8145C9.32302 15.9109 9.42186 15.9888 9.5324 16.0432C9.64294 16.0977 9.76282 16.1276 9.88468 16.1312C10.0065 16.1347 10.1278 16.1118 10.241 16.0639C10.3542 16.0159 10.4569 15.9439 10.5429 15.8523L13.7594 12.6047C13.8445 12.5186 13.9448 12.4511 14.0545 12.4061C14.1643 12.3611 14.2813 12.3395 14.399 12.3426C14.5166 12.3457 14.6325 12.3733 14.74 12.424C14.8476 12.4747 14.9446 12.5473 15.0255 12.6378V12.6378Z" fill="#DA686D"/>
</g>
<defs>
<clipPath id="clip0_115_607">
<rect width="21.4438" height="22.7172" fill="white" transform="translate(0.08284 0.0379028)"/>
</clipPath>
</defs>
</svg>
