<svg width="22" height="24" viewBox="0 0 22 24" fill="none" xmlns="http://www.w3.org/2000/svg">
<g clip-path="url(#clip0_115_575)">
<path d="M18.4235 4.77427L13.0385 1.48027C12.3589 1.06627 11.5887 0.848389 10.8047 0.848389C10.0208 0.848389 9.25059 1.06627 8.57101 1.48027L3.18594 4.77427C2.50767 5.19067 1.94441 5.78833 1.55243 6.50755C1.16046 7.22676 0.953493 8.04235 0.952209 8.87284V15.4608C0.953516 16.2914 1.16048 17.1072 1.55245 17.8265C1.94441 18.5459 2.50766 19.1437 3.18594 19.5604L8.57101 22.8534C9.2505 23.2677 10.0208 23.4857 10.8047 23.4857C11.5887 23.4857 12.359 23.2677 13.0385 22.8534L18.4235 19.5604C19.1018 19.1437 19.6651 18.5459 20.057 17.8265C20.449 17.1072 20.656 16.2914 20.6573 15.4608V8.87284C20.656 8.04235 20.449 7.22676 20.057 6.50755C19.6651 5.78833 19.1018 5.19067 18.4235 4.77427ZM9.4645 3.12064C9.87198 2.87141 10.3342 2.7402 10.8047 2.7402C11.2753 2.7402 11.7375 2.87141 12.145 3.12064L17.53 6.4137C17.6666 6.50513 17.7949 6.60969 17.9134 6.72606L12.38 10.11C11.9009 10.4025 11.3577 10.5565 10.8047 10.5565C10.2518 10.5565 9.70856 10.4025 9.22951 10.11L3.69612 6.72606C3.81457 6.60969 3.94288 6.50513 4.07943 6.4137L9.4645 3.12064ZM4.07943 17.92C3.67218 17.67 3.33404 17.3111 3.09883 16.8792C2.86363 16.4473 2.73961 15.9576 2.73919 15.4589V8.87284C2.7454 8.70231 2.76663 8.53277 2.80263 8.36643L8.33602 11.7504C8.82471 12.0448 9.35754 12.2482 9.91125 12.3514V21.409C9.75691 21.3589 9.60734 21.2936 9.4645 21.214L4.07943 17.92ZM18.8703 15.4589C18.8699 15.9576 18.7458 16.4473 18.5106 16.8792C18.2754 17.3111 17.9373 17.67 17.53 17.92L12.145 21.214C12.0021 21.2936 11.8526 21.3589 11.6982 21.409V12.3514C12.2519 12.2482 12.7848 12.0448 13.2735 11.7504L18.8068 8.36643C18.8428 8.53277 18.8641 8.70231 18.8703 8.87284V15.4589Z" fill="#DA686D"/>
</g>
<defs>
<clipPath id="clip0_115_575">
<rect width="21.4438" height="22.7172" fill="white" transform="translate(0.08284 0.782715)"/>
</clipPath>
</defs>
</svg>
