<svg width="22" height="24" viewBox="0 0 22 24" fill="none" xmlns="http://www.w3.org/2000/svg">
<g clip-path="url(#clip0_115_599)">
<path d="M8.12439 13.6622H13.4853C13.7223 13.6622 13.9496 13.5624 14.1171 13.3849C14.2847 13.2074 14.3788 12.9666 14.3788 12.7156C14.3788 12.4646 14.2847 12.2238 14.1171 12.0463C13.9496 11.8688 13.7223 11.769 13.4853 11.769H8.12439C7.88742 11.769 7.66015 11.8688 7.49259 12.0463C7.32503 12.2238 7.2309 12.4646 7.2309 12.7156C7.2309 12.9666 7.32503 13.2074 7.49259 13.3849C7.66015 13.5624 7.88742 13.6622 8.12439 13.6622Z" fill="#DA686D"/>
<path d="M17.0592 0.4104H4.5503C3.36589 0.411903 2.2304 0.911015 1.39289 1.79825C0.555391 2.68549 0.0842587 3.88841 0.08284 5.14316L0.08284 6.08971C0.0830998 6.48891 0.162808 6.88357 0.316764 7.24793C0.47072 7.61229 0.695464 7.93817 0.976331 8.20431V18.3949C0.97775 19.6496 1.44888 20.8526 2.28639 21.7398C3.12389 22.627 4.25938 23.1261 5.44379 23.1276H16.1657C17.3501 23.1261 18.4856 22.627 19.3231 21.7398C20.1606 20.8526 20.6317 19.6496 20.6331 18.3949V8.20431C20.914 7.93817 21.1387 7.61229 21.2927 7.24793C21.4467 6.88357 21.5264 6.48891 21.5266 6.08971V5.14316C21.5252 3.88841 21.0541 2.68549 20.2166 1.79825C19.3791 0.911015 18.2436 0.411903 17.0592 0.4104V0.4104ZM1.86982 5.14316C1.86982 4.39004 2.15223 3.66776 2.65491 3.13522C3.1576 2.60268 3.83939 2.3035 4.5503 2.3035H17.0592C17.7701 2.3035 18.4519 2.60268 18.9546 3.13522C19.4572 3.66776 19.7396 4.39004 19.7396 5.14316V6.08971C19.7396 6.34075 19.6455 6.58151 19.4779 6.75902C19.3104 6.93654 19.0831 7.03626 18.8462 7.03626H2.76331C2.52634 7.03626 2.29908 6.93654 2.13152 6.75902C1.96396 6.58151 1.86982 6.34075 1.86982 6.08971V5.14316ZM18.8462 18.3949C18.8462 19.148 18.5637 19.8703 18.0611 20.4028C17.5584 20.9354 16.8766 21.2345 16.1657 21.2345H5.44379C4.73288 21.2345 4.05109 20.9354 3.54841 20.4028C3.04572 19.8703 2.76331 19.148 2.76331 18.3949V8.92937H18.8462V18.3949Z" fill="#DA686D"/>
</g>
<defs>
<clipPath id="clip0_115_599">
<rect width="21.4438" height="22.7172" fill="white" transform="translate(0.08284 0.4104)"/>
</clipPath>
</defs>
</svg>
