<svg width="72" height="49" viewBox="0 0 72 49" fill="none" xmlns="http://www.w3.org/2000/svg">
<path d="M0 48H72" stroke="#CCCCCC" stroke-width="2"/>
<path d="M8.17259 29.3636L9.85795 32.3366L11.5582 29.3636H13.1839L10.8026 33.1818L13.2038 37H11.5781L9.85795 34.1463L8.14276 37H6.51207L8.88849 33.1818L6.5419 29.3636H8.17259ZM15.4635 29.3636L17.1489 32.3366L18.8492 29.3636H20.4749L18.0935 33.1818L20.4948 37H18.8691L17.1489 34.1463L15.4337 37H13.803L16.1794 33.1818L13.8328 29.3636H15.4635ZM22.7545 29.3636L24.4398 32.3366L26.1401 29.3636H27.7658L25.3844 33.1818L27.7857 37H26.16L24.4398 34.1463L22.7246 37H21.0939L23.4704 33.1818L21.1238 29.3636H22.7545Z" fill="#CCCCCC"/>
<path d="M11.9432 7.14773H10.1705C10.1023 6.76894 9.97538 6.43561 9.78977 6.14773C9.60417 5.85985 9.37689 5.61553 9.10795 5.41477C8.83902 5.21401 8.53788 5.0625 8.20455 4.96023C7.875 4.85795 7.52462 4.80682 7.15341 4.80682C6.48295 4.80682 5.88258 4.97538 5.35227 5.3125C4.82576 5.64962 4.40909 6.14394 4.10227 6.79545C3.79924 7.44697 3.64773 8.24242 3.64773 9.18182C3.64773 10.1288 3.79924 10.928 4.10227 11.5795C4.40909 12.2311 4.82765 12.7235 5.35795 13.0568C5.88826 13.3902 6.48485 13.5568 7.14773 13.5568C7.51515 13.5568 7.86364 13.5076 8.19318 13.4091C8.52652 13.3068 8.82765 13.1572 9.09659 12.9602C9.36553 12.7633 9.5928 12.5227 9.77841 12.2386C9.9678 11.9508 10.0985 11.6212 10.1705 11.25L11.9432 11.2557C11.8485 11.8277 11.6648 12.3542 11.392 12.8352C11.1231 13.3125 10.7765 13.7254 10.3523 14.0739C9.93182 14.4186 9.45076 14.6856 8.90909 14.875C8.36742 15.0644 7.77652 15.1591 7.13636 15.1591C6.12879 15.1591 5.23106 14.9205 4.44318 14.4432C3.6553 13.9621 3.03409 13.2746 2.57955 12.3807C2.12879 11.4867 1.90341 10.4205 1.90341 9.18182C1.90341 7.93939 2.13068 6.87311 2.58523 5.98295C3.03977 5.08901 3.66098 4.40341 4.44886 3.92614C5.23674 3.44508 6.13258 3.20455 7.13636 3.20455C7.75379 3.20455 8.32955 3.29356 8.86364 3.47159C9.40152 3.64583 9.88447 3.90341 10.3125 4.24432C10.7405 4.58144 11.0947 4.99432 11.375 5.48295C11.6553 5.9678 11.8447 6.52273 11.9432 7.14773ZM14.5811 3.36364L17.8197 12.8409H17.9504L21.189 3.36364H23.0868L18.8993 15H16.8709L12.6834 3.36364H14.5811ZM25.3042 3.36364L28.5428 12.8409H28.6735L31.9122 3.36364H33.8099L29.6224 15H27.594L23.4065 3.36364H25.3042Z" fill="#7C7B7B"/>
</svg>
